# xmcd
#
# Track frame offsets: 
#        150
#        23292
#        56185
#        79172
#        101062
#        129485
#        153355
#        178392
#        204172
#        224930
#
# Disc length: 3262 seconds
#
# Revision: 0
# Processed by: cddbd v1.5.2PL0 Copyright (c) Steve Scherf et al.
# Submitted via: ExactAudioCopy v1.0b3
#
DISCID=8c0cbc0a
DTITLE=Ngoc Son - Thuong Nho
DYEAR=1994
DGENRE=
TTITLE0=Tinh nho mau quen
TTITLE1=Ngoc Son, Yen Khoa - Ve lai doi sim
TTITLE2=Chuyen tau ve que ngoai
TTITLE3=To duyen
TTITLE4=Ngoc Son, Kieu Loan - Huong toc ma non
TTITLE5=Hinh bong que nha
TTITLE6=Ngoc Son, Yen Khoa - Ve que ngoai
TTITLE7=Tro lai thanh pho suong mu
TTITLE8=Tinh em ngay do
TTITLE9=Thuong nho
EXTD=
EXTT0=
EXTT1=
EXTT2=
EXTT3=
EXTT4=
EXTT5=
EXTT6=
EXTT7=
EXTT8=
EXTT9=
PLAYORDER=
